<svg width="29" height="25" viewBox="0 0 29 25" fill="none" xmlns="http://www.w3.org/2000/svg">
<path fill-rule="evenodd" clip-rule="evenodd" d="M6.53022 22.5474C5.29629 22.7601 4.03008 22.4385 3.04722 21.6627C2.06436 20.8869 1.45743 19.7301 1.37772 18.4805V5.05172C1.32031 3.64259 2.1774 2.35696 3.50022 1.86797C7.38549 0.442147 11.7475 1.53413 14.5027 4.62235V23.7867C12.6558 22.2342 9.46459 22.1405 6.53022 22.5474Z" stroke="black" stroke-width="1.5" stroke-linecap="round" stroke-linejoin="round"/>
<path fill-rule="evenodd" clip-rule="evenodd" d="M22.4754 22.5474C23.7094 22.7601 24.9756 22.4385 25.9584 21.6627C26.9413 20.8869 27.5482 19.7301 27.6279 18.4805V5.05172C27.6853 3.64259 26.8282 2.35696 25.5054 1.86797C21.6202 0.442147 17.2582 1.53413 14.5029 4.62235V23.7867C16.3498 22.2342 19.5411 22.1405 22.4754 22.5474Z" stroke="black" stroke-width="1.5" stroke-linecap="round" stroke-linejoin="round"/>
<path d="M9.81543 11.4116C10.2296 11.4116 10.5654 11.0758 10.5654 10.6616C10.5654 10.2474 10.2296 9.91162 9.81543 9.91162V11.4116ZM6.06543 9.91162C5.65122 9.91162 5.31543 10.2474 5.31543 10.6616C5.31543 11.0758 5.65122 11.4116 6.06543 11.4116V9.91162ZM9.81543 15.1616C10.2296 15.1616 10.5654 14.8258 10.5654 14.4116C10.5654 13.9974 10.2296 13.6616 9.81543 13.6616V15.1616ZM6.06543 13.6616C5.65122 13.6616 5.31543 13.9974 5.31543 14.4116C5.31543 14.8258 5.65122 15.1616 6.06543 15.1616V13.6616ZM22.9404 11.4116C23.3546 11.4116 23.6904 11.0758 23.6904 10.6616C23.6904 10.2474 23.3546 9.91162 22.9404 9.91162V11.4116ZM19.1904 9.91162C18.7762 9.91162 18.4404 10.2474 18.4404 10.6616C18.4404 11.0758 18.7762 11.4116 19.1904 11.4116V9.91162ZM22.9404 15.1616C23.3546 15.1616 23.6904 14.8258 23.6904 14.4116C23.6904 13.9974 23.3546 13.6616 22.9404 13.6616V15.1616ZM19.1904 13.6616C18.7762 13.6616 18.4404 13.9974 18.4404 14.4116C18.4404 14.8258 18.7762 15.1616 19.1904 15.1616V13.6616ZM9.81543 9.91162H6.06543V11.4116H9.81543V9.91162ZM9.81543 13.6616H6.06543V15.1616H9.81543V13.6616ZM22.9404 9.91162H19.1904V11.4116H22.9404V9.91162ZM22.9404 13.6616H19.1904V15.1616H22.9404V13.6616Z" fill="black"/>
</svg>
